<svg xmlns="http://www.w3.org/2000/svg" viewBox="0 0 180 180" role="img" aria-label="Missão Foz">
  <rect width="180" height="180" rx="28" fill="#070a10"/>
  <rect x="14" y="14" width="152" height="152" rx="19" fill="#111827" stroke="#ffd800" stroke-width="8"/>
  <rect x="30" y="116" width="120" height="20" fill="#444b55"/>
  <rect x="30" y="138" width="120" height="6" fill="#ffd800"/>
  <rect x="79" y="40" width="26" height="26" fill="#c68658" stroke="#05070c" stroke-width="6"/>
  <rect x="76" y="34" width="32" height="10" fill="#241a12"/>
  <rect x="77" y="49" width="13" height="7" fill="#080a0f"/>
  <rect x="94" y="49" width="13" height="7" fill="#080a0f"/>
  <rect x="84" y="47" width="16" height="3" fill="#080a0f"/>
  <rect x="72" y="66" width="40" height="48" fill="#080a0f" stroke="#05070c" stroke-width="6"/>
  <rect x="86" y="69" width="12" height="35" fill="#f4f2e9"/>
  <rect x="90" y="71" width="5" height="29" fill="#ffd800"/>
  <rect x="59" y="70" width="15" height="40" fill="#11151c" stroke="#05070c" stroke-width="5"/>
  <rect x="110" y="70" width="15" height="40" fill="#11151c" stroke="#05070c" stroke-width="5"/>
  <rect x="75" y="109" width="15" height="28" fill="#0b0f16"/>
  <rect x="96" y="109" width="15" height="28" fill="#0b0f16"/>
  <text x="90" y="159" text-anchor="middle" font-family="monospace" font-size="13" font-weight="900" fill="#ffffff">MISSÃO FOZ</text>
</svg>
